<svg id="Apps" xmlns="http://www.w3.org/2000/svg" width="30.003" height="30" viewBox="0 0 30.003 30">
  <path id="Path_220" data-name="Path 220" d="M456.142,460.321c0-1.042.015-2.083-.005-3.125-.013-.7.252-1.057.988-1.053,2.2.013,4.4.008,6.607,0,.624,0,.938.285.937.918q0,3.348,0,6.7c0,.633-.315.917-.939.916-2.2-.005-4.4-.01-6.607,0-.738,0-1-.36-.987-1.054C456.156,462.524,456.142,461.422,456.142,460.321Zm1.416,2.913h5.678v-5.663h-5.678Z" transform="translate(-456.135 -456.144)" fill="#7b7a7a"/>
  <path id="Path_221" data-name="Path 221" d="M524.694,460.5c0,1.042-.015,2.083.005,3.125.013.695-.25,1.058-.987,1.054-2.2-.013-4.4-.008-6.607,0-.624,0-.939-.284-.938-.916q0-3.348,0-6.7c0-.633.313-.918.938-.917,2.2.005,4.4.01,6.607,0,.736,0,1,.358.988,1.053C524.679,458.3,524.693,459.4,524.694,460.5Zm-1.442,2.756v-5.675h-5.66v5.675Z" transform="translate(-505.428 -456.145)" fill="#7b7a7a"/>
  <path id="Path_222" data-name="Path 222" d="M576.142,460.321c0-1.042.015-2.084-.005-3.125-.013-.7.252-1.057.989-1.052,2.2.013,4.4.008,6.607,0,.624,0,.938.285.937.918q0,3.348,0,6.7c0,.633-.315.917-.939.915-2.2-.005-4.4-.01-6.607,0-.738,0-1-.361-.987-1.054C576.156,462.524,576.142,461.422,576.142,460.321Zm7.094,2.945v-5.695h-5.647v5.695Z" transform="translate(-554.67 -456.144)" fill="#7b7a7a"/>
  <path id="Path_223" data-name="Path 223" d="M464.662,520.462c0,1.042-.019,2.084.007,3.125.019.744-.268,1.1-1.044,1.09q-3.214-.03-6.428,0c-.76.008-1.076-.308-1.069-1.067.02-2.143.017-4.285,0-6.428,0-.7.267-1.048,1-1.044q3.259.021,6.517,0c.715,0,1.034.3,1.021,1.02C464.648,518.26,464.662,519.361,464.662,520.462Zm-1.417-2.881h-5.679v5.666h5.679Z" transform="translate(-456.128 -505.407)" fill="#7b7a7a"/>
  <path id="Path_224" data-name="Path 224" d="M516.135,520.394c0-1.071.014-2.143-.005-3.214-.013-.7.273-1.045,1-1.04q3.259.021,6.517,0c.718,0,1.023.31,1.018,1.024q-.022,3.258,0,6.517c0,.731-.345,1-1.045,1-2.143-.016-4.286-.02-6.428,0-.763.008-1.082-.314-1.064-1.071C516.154,522.537,516.135,521.465,516.135,520.394Zm1.426-2.847v5.674h5.658v-5.674Z" transform="translate(-505.396 -505.408)" fill="#7b7a7a"/>
  <path id="Path_225" data-name="Path 225" d="M580.445,516.144c1.071,0,2.143.014,3.214-.005.711-.013,1.034.29,1.029,1.012q-.022,3.259,0,6.517c0,.724-.326,1.013-1.034,1.008-2.172-.016-4.345-.013-6.518,0-.669,0-.985-.29-.982-.966q.012-3.3,0-6.607c0-.679.321-.969.987-.961C578.243,516.154,579.344,516.144,580.445,516.144Zm2.82,1.441H577.59v5.659h5.675Z" transform="translate(-554.686 -505.407)" fill="#7b7a7a"/>
  <path id="Path_226" data-name="Path 226" d="M464.694,580.412c0,1.071-.014,2.143.005,3.214.013.695-.249,1.059-.986,1.055-2.2-.013-4.4-.008-6.607,0-.624,0-.939-.283-.939-.916q0-3.348,0-6.7c0-.633.312-.919.937-.917,2.2.005,4.4.01,6.607,0,.736,0,1,.357.988,1.053C464.678,578.269,464.693,579.34,464.694,580.412Zm-7.084-2.844v5.672h5.656v-5.672Z" transform="translate(-456.16 -554.68)" fill="#7b7a7a"/>
  <path id="Path_227" data-name="Path 227" d="M520.414,576.141c1.071,0,2.143.015,3.214-.005.7-.013,1.056.254,1.052.989-.013,2.2-.008,4.4,0,6.607,0,.624-.285.938-.918.936q-3.348,0-6.7,0c-.635,0-.916-.318-.915-.939,0-2.2.009-4.4,0-6.607,0-.737.36-1,1.055-.986C518.271,576.156,519.343,576.141,520.414,576.141Zm-2.843,1.4v5.679h5.667v-5.679Z" transform="translate(-505.41 -554.672)" fill="#7b7a7a"/>
  <path id="Path_228" data-name="Path 228" d="M576.142,580.321c0-1.042.015-2.083-.005-3.125-.013-.7.252-1.057.989-1.053,2.2.013,4.4.008,6.607,0,.624,0,.938.285.937.918q0,3.348,0,6.7c0,.633-.315.917-.939.915-2.2-.005-4.4-.01-6.607,0-.738,0-1-.361-.987-1.054C576.156,582.524,576.142,581.422,576.142,580.321Zm7.1,2.952V577.6h-5.661v5.677Z" transform="translate(-554.67 -554.679)" fill="#7b7a7a"/>
</svg>
