<svg xmlns="http://www.w3.org/2000/svg" width="31.394" height="27.1" viewBox="0 0 31.394 27.1">
  <path id="Cart" d="M11.56,26.7a2.676,2.676,0,0,1-1.43-1.648,3.452,3.452,0,0,1,.638-3.221,2.817,2.817,0,0,1,1.822-.985,2.89,2.89,0,0,1,2.228.617,3.348,3.348,0,0,1,1.27,2,3.48,3.48,0,0,1,.063.64,2.8,2.8,0,0,1-1.38,2.368,3.38,3.38,0,0,1-1.51.51Q13.081,27,12.9,27A3.062,3.062,0,0,1,11.56,26.7Zm1.022-4.691a1.917,1.917,0,0,0-1,.652,2.037,2.037,0,0,0-.5,1.744,1.646,1.646,0,0,0,1.123,1.311,1.942,1.942,0,0,0,.642.1c.084-.007.168-.01.252-.02a2.379,2.379,0,0,0,1.3-.542,1.6,1.6,0,0,0,.633-1.472,1.984,1.984,0,0,0-1.238-1.667,1.879,1.879,0,0,0-.762-.168A1.72,1.72,0,0,0,12.583,22.01Zm11.57,4.726A2.632,2.632,0,0,1,22.6,24.884a3.352,3.352,0,0,1,.624-2.979,2.748,2.748,0,0,1,1.893-1.06c.129-.017.259-.023.339-.03a2.946,2.946,0,0,1,1.7.519,3.323,3.323,0,0,1,1.46,2.2,2.8,2.8,0,0,1-1.3,2.924,3.435,3.435,0,0,1-1.532.526Q25.6,27,25.417,27A3.051,3.051,0,0,1,24.153,26.735Zm.18-4.309a2.221,2.221,0,0,0-.68,1.057,1.816,1.816,0,0,0-.052.942,1.674,1.674,0,0,0,1.125,1.292,1.969,1.969,0,0,0,.9.082A2.394,2.394,0,0,0,27,25.179a1.641,1.641,0,0,0,.556-1.24c0-.029,0-.07-.007-.112a.687.687,0,0,0-.006-.081A2.008,2.008,0,0,0,26.271,22.1a1.98,1.98,0,0,0-.746-.156A1.8,1.8,0,0,0,24.333,22.426ZM30.588,19.3H9.1a1.04,1.04,0,0,1-.417-.068,1.1,1.1,0,0,1-.662-.808.948.948,0,0,1,.347-1c.686-.565,1.369-1.133,2.056-1.7a.142.142,0,0,0,.06-.165q-.473-2.1-.938-4.211c-.273-1.234-.541-2.471-.822-3.7-.348-1.527-.706-3.052-1.062-4.577A3.217,3.217,0,0,0,7.536,2.6a2.229,2.229,0,0,0-1.8-1.442,2.176,2.176,0,0,0-.361-.021H.6A.586.586,0,0,1,.041.319.5.5,0,0,1,.522,0c.284,0,.568,0,.852,0C2.717,0,4.061,0,5.4,0a3.381,3.381,0,0,1,2.655,1.25,3.237,3.237,0,0,1,.7,1.461c.128.591.266,1.178.4,1.769a.522.522,0,0,0,.017.057h.134l6.413-.007q5.019-.005,10.038-.009,1.8,0,3.6.018a1.9,1.9,0,0,1,1.526.785,1.765,1.765,0,0,1,.387,1.093c.007.545.018,1.09.017,1.635,0,1.629-.012,3.258-.015,4.887a1.955,1.955,0,0,1-1.53,1.877,4.675,4.675,0,0,1-.512.063c-.471.043-.943.083-1.416.123-.379.033-.758.064-1.136.1l-1.146.1c-.38.034-.758.064-1.138.1l-1.146.1-.92.078q-.578.048-1.155.1l-.912.076-1.162.1-.921.078-1.155.1-.9.077-1.182.1-.919.078-1.155.1-.921.078c-.165.015-.33.029-.5.042a.248.248,0,0,0-.146.062q-.973.807-1.95,1.613c-.021.018-.042.038-.08.073H30.611a.788.788,0,0,1,.35.077.5.5,0,0,1,.28.6.617.617,0,0,1-.6.458ZM9.5,5.677l-.073.009q1.081,4.789,2.162,9.572c.024,0,.038,0,.053,0l.883-.075,1.173-.1c.32-.027.638-.051.957-.078l1.4-.117c.4-.033.794-.063,1.191-.1q.813-.066,1.625-.135l1.408-.115q.9-.075,1.8-.152l1.669-.143q.917-.08,1.831-.162.978-.086,1.957-.178c.625-.06,1.248-.125,1.874-.177a.79.79,0,0,0,.716-.775c0-.2,0-.4.007-.6.028-1.974.053-3.948-.007-5.922a.783.783,0,0,0-.628-.743,1.281,1.281,0,0,0-.225-.012H9.5Z" transform="translate(0.056 0.05)" fill="#7b7a7a" stroke="#707070" stroke-miterlimit="10" stroke-width="0.1"/>
</svg>
