<svg xmlns="http://www.w3.org/2000/svg" width="34" height="30" viewBox="0 0 34 30">
  <g id="Help" transform="translate(154 -807)">
    <rect id="Rectangle_16981" data-name="Rectangle 16981" width="34" height="30" transform="translate(-154 807)" fill="#fff" opacity="0"/>
    <g id="Group_1288" data-name="Group 1288" transform="translate(398.16 701.24)">
      <path id="Path_356" data-name="Path 356" d="M-536,109.76h1.354a1.178,1.178,0,0,0,.162.035,10.509,10.509,0,0,1,5.635,2.118,10.66,10.66,0,0,1,4.2,6.835c.07.387.109.779.163,1.169v1.354c-.031.258-.058.516-.095.773a10.726,10.726,0,0,1-3.465,6.573,10.569,10.569,0,0,1-5.408,2.647c-.394.069-.793.11-1.19.164H-536a1.255,1.255,0,0,0-.163-.034,10.527,10.527,0,0,1-5.584-2.082,10.66,10.66,0,0,1-4.245-6.851c-.072-.394-.111-.793-.165-1.19v-1.354a1.61,1.61,0,0,0,.036-.183,10.513,10.513,0,0,1,2.093-5.581,10.659,10.659,0,0,1,6.84-4.226C-536.8,109.855-536.4,109.815-536,109.76Zm.67,15.8a4.952,4.952,0,0,0,4.969-4.954,4.951,4.951,0,0,0-4.954-4.969,4.952,4.952,0,0,0-4.969,4.953A4.952,4.952,0,0,0-535.333,125.557Zm-8.428.263a.587.587,0,0,0,.064-.046q1.421-1.42,2.845-2.838c.1-.1.07-.176.032-.28a5.823,5.823,0,0,1,.008-4.134.245.245,0,0,0-.073-.307q-1.366-1.356-2.724-2.72c-.044-.044-.091-.083-.139-.126A9.855,9.855,0,0,0-543.761,125.819Zm13.665,3.207a.639.639,0,0,0-.048-.065q-1.42-1.421-2.838-2.844c-.09-.091-.161-.07-.261-.034a5.826,5.826,0,0,1-4.133.008.261.261,0,0,0-.327.07q-1.347,1.36-2.7,2.709c-.049.049-.094.1-.142.153A9.858,9.858,0,0,0-530.1,129.026Zm3.2-13.649a.774.774,0,0,0-.081.063q-1.414,1.413-2.83,2.825c-.093.092-.064.164-.028.262a5.822,5.822,0,0,1,.005,4.115.263.263,0,0,0,.074.328q1.36,1.348,2.71,2.706c.048.048.1.095.151.145A9.859,9.859,0,0,0-526.894,115.377Zm-3.205-3.212a9.863,9.863,0,0,0-10.439-.007.439.439,0,0,0,.046.067q1.42,1.422,2.846,2.838a.3.3,0,0,0,.255.033,5.872,5.872,0,0,1,4.117,0,.263.263,0,0,0,.327-.072q1.348-1.36,2.705-2.71C-530.193,112.269-530.148,112.217-530.1,112.164Zm.812.549-2.89,2.89c.323.273.688.541,1,.858s.58.679.856,1.008l2.89-2.891A9.709,9.709,0,0,0-529.287,112.713Zm-12.057-.014a9.647,9.647,0,0,0-1.85,1.843l2.888,2.889c.264-.313.528-.672.841-.982s.681-.583,1.011-.86Zm2.927,12.885a6.043,6.043,0,0,1-1.892-1.88l-2.911,2.912a9.714,9.714,0,0,0,1.885,1.881Zm8.083-1.9a5.988,5.988,0,0,1-1.842,1.869l2.91,2.91a9.748,9.748,0,0,0,1.849-1.866Z" fill="#6b6b6b"/>
    </g>
  </g>
</svg>
