<svg xmlns="http://www.w3.org/2000/svg" width="36.305" height="26.25" viewBox="0 0 36.305 26.25">
  <path id="Messages" d="M.713,25.868c-.276-.22-.218-.51-.15-.793.185-.774.376-1.547.563-2.321.143-.593.3-1.183.411-1.78a.843.843,0,0,0-.113-.571A7.554,7.554,0,0,1,.037,15.312,8.283,8.283,0,0,1,3.06,9.851a13.126,13.126,0,0,1,3.712-2.26c.458-.19.8-.105.95.239s0,.632-.447.813a11.651,11.651,0,0,0-3.92,2.549A6.677,6.677,0,0,0,1.214,16.3a6.38,6.38,0,0,0,1.378,3.658,1.058,1.058,0,0,1,.2,1c-.278,1.072-.525,2.151-.783,3.227-.016.07-.016.144-.032.291,1.281-.475,2.5-.912,3.7-1.382a1.349,1.349,0,0,1,1.137.032,15.78,15.78,0,0,0,7.7,1.248,14.412,14.412,0,0,0,6.407-1.9A22.092,22.092,0,0,0,22.9,21.04a.629.629,0,0,1,.81-.072.524.524,0,0,1,.2.664,1.025,1.025,0,0,1-.283.345,13.989,13.989,0,0,1-6.735,3.24,17.668,17.668,0,0,1-10.462-.961.832.832,0,0,0-.543.024c-1.413.509-2.818,1.037-4.225,1.56l-.144.057a1.188,1.188,0,0,1-.432.1A.577.577,0,0,1,.713,25.868Zm33.753-6.34c-1.418-.527-2.84-1.051-4.255-1.588a.932.932,0,0,0-.731.016,17.152,17.152,0,0,1-14.872-.784A9.2,9.2,0,0,1,9.9,11.764,7.316,7.316,0,0,1,11.59,4.451,13.041,13.041,0,0,1,18.647.467,16.665,16.665,0,0,1,22.752,0,15.865,15.865,0,0,1,32.3,2.953a8.8,8.8,0,0,1,3.529,4.983,7.29,7.29,0,0,1-1.195,6.077.775.775,0,0,0-.128.688c.332,1.327.646,2.659.967,3.989.071.295.151.6-.135.83a.566.566,0,0,1-.37.135A1.486,1.486,0,0,1,34.466,19.528Zm-4.021-2.747c1.18.462,2.376.889,3.633,1.354-.026-.164-.031-.249-.051-.33-.251-1.053-.487-2.109-.763-3.156a1.142,1.142,0,0,1,.218-1.071,6.268,6.268,0,0,0,.024-7.786,10.026,10.026,0,0,0-3.724-3.025A15.96,15.96,0,0,0,19.168,1.546a11.938,11.938,0,0,0-6.36,3.33,6.314,6.314,0,0,0-1.687,6.777A8.2,8.2,0,0,0,14.738,15.9a14.345,14.345,0,0,0,6.647,2.125A15.834,15.834,0,0,0,29.2,16.8a1.548,1.548,0,0,1,.632-.146A1.649,1.649,0,0,1,30.445,16.781Z" transform="translate(0.125 0.125)" fill="#fff" stroke="#707070" stroke-miterlimit="10" stroke-width="0.25"/>
</svg>
