<svg id="My_Books" data-name="My Books" xmlns="http://www.w3.org/2000/svg" width="17.293" height="21.631" viewBox="0 0 17.293 21.631">
  <path id="Path_296" data-name="Path 296" d="M-412.7,304.9q0-4.224,0-8.449a2.24,2.24,0,0,1,2.546-2.54h12.7c.084,0,.169,0,.253,0,.39-.012.7.143.7.551s-.291.552-.69.55c-1.72-.009-3.44,0-5.16,0q-4,0-7.993,0a1.13,1.13,0,0,0-1.2.733,1.062,1.062,0,0,0,1.11,1.4q4.6.007,9.208,0c1.315,0,2.631,0,3.946,0a1.657,1.657,0,0,1,1.863,1.832q.014,7.361,0,14.722a1.654,1.654,0,0,1-1.861,1.833q-6.754.005-13.508,0A1.694,1.694,0,0,1-412.7,313.6Q-412.7,309.25-412.7,304.9Zm1.116-6.768c0,.05-.016.133-.016.217q0,7.661,0,15.321c0,.627.166.771.841.771q6.649,0,13.3,0c.849,0,.951-.1.952-.967q0-7.18,0-14.36c0-.741-.131-.866-.9-.867q-6.219,0-12.439-.006C-410.407,298.24-410.969,298.172-411.583,298.132Z" transform="translate(412.701 -293.909)" fill="#fff"/>
  <path id="Path_297" data-name="Path 297" d="M-356.179,380.134q-1.238,0-2.475,0c-.368,0-.7-.084-.708-.531-.01-.48.334-.565.723-.566l5,0c.386,0,.738.077.733.557s-.367.541-.748.541Z" transform="translate(364.78 -370.39)" fill="#fff"/>
  <path id="Path_298" data-name="Path 298" d="M-356.188,412.02h-2.425c-.38,0-.744-.056-.751-.537s.342-.56.729-.56l5,0c.387,0,.737.079.726.561s-.376.535-.754.535Z" transform="translate(364.782 -399.037)" fill="#fff"/>
</svg>
