<svg xmlns="http://www.w3.org/2000/svg" width="25.629" height="15.586" viewBox="0 0 25.629 15.586">
  <path id="My_Courses" data-name="My Courses" d="M-1159.062,815.706h.024a1.7,1.7,0,0,0,1.613-1.013,1.279,1.279,0,0,0-.7-1.6.656.656,0,0,1-.423-.66c.01-.462.01-.933.011-1.388,0-.475,0-.966.013-1.449.005-.244-.066-.418-.438-.53l-3.687-1.117c-2.472-.749-5.027-1.524-7.545-2.277a1.483,1.483,0,0,0-.415-.056,1.389,1.389,0,0,0-.389.052c-2.438.73-4.913,1.482-7.306,2.209q-1.941.59-3.882,1.178c-.384.116-.518.233-.512.447.005.2.142.313.5.421.558.166,1.123.339,1.67.505.835.255,1.7.519,2.553.764a.667.667,0,0,1,.579.732c-.008,1.229-.008,2.478-.008,3.687,0,1.041,0,2.118-.005,3.177a.642.642,0,0,0,.422.672,14.426,14.426,0,0,0,12.695.027.669.669,0,0,0,.458-.689c-.009-1.266-.01-2.552-.01-3.8,0-1.03,0-2.1-.005-3.144a.569.569,0,0,1,.5-.623c.467-.128.938-.275,1.392-.418.234-.073.476-.149.715-.221.323-.1.649-.193.994-.293l.5-.147.207-.061v.216q0,.3,0,.6c0,.554.006,1.076-.015,1.6a.744.744,0,0,1-.356.539,1.354,1.354,0,0,0-.766,1.57A1.688,1.688,0,0,0-1159.062,815.706Zm-5.8,2.9a.787.787,0,0,1-.458.436,12.925,12.925,0,0,1-5.2,1.1,13.632,13.632,0,0,1-2.767-.289,14.006,14.006,0,0,1-1.653-.486c-.288-.1-.586-.2-.881-.287a.7.7,0,0,1-.583-.851,1.359,1.359,0,0,0,.007-.281c0-.06-.005-.128-.005-.2V817.5l.219.084a14.889,14.889,0,0,0,11.126.015l.219-.084v.235c0,.091,0,.179.007.264A2.06,2.06,0,0,1-1164.861,818.6Zm-11.542-5.254q0-.5,0-.992v-.668l.975.293,1.558.47q.418.127.835.257c.65.2,1.322.411,1.99.59a1.725,1.725,0,0,0,.855.01c1.122-.321,2.255-.669,3.351-1.005l1.249-.382c.1-.032.21-.06.323-.09l.181-.049.177-.049.026.182c.006.041.012.078.019.113a1.315,1.315,0,0,1,.026.225q0,.624,0,1.248c0,.86,0,1.749.009,2.622a.635.635,0,0,1-.464.648,13.643,13.643,0,0,1-5.292,1.106h-.013a13.975,13.975,0,0,1-5.305-1.1.688.688,0,0,1-.509-.708C-1176.4,815.164-1176.4,814.241-1176.4,813.347Zm15.4-3.705-.187.067c-.116.042-.216.079-.32.111l-1.4.425c-2.376.723-4.833,1.471-7.256,2.192a1.56,1.56,0,0,1-.437.059,1.643,1.643,0,0,1-.46-.063c-2.42-.721-4.876-1.468-7.25-2.19l-1.447-.44c-.084-.025-.163-.055-.273-.1l-.218-.08-.458-.165,2-.6,3.253-.985,1.354-.413c1.021-.312,2.078-.634,3.121-.943a1.29,1.29,0,0,1,.687-.018c2.6.78,5.239,1.582,7.791,2.359l1.241.377c.05.015.1.034.155.058l.112.045.4.158Zm1.926,4.025a.65.65,0,0,1,.729.55l0,.018v.018a.631.631,0,0,1-.677.639h-.011a.616.616,0,0,1-.685-.61A.6.6,0,0,1-1159.081,813.667Z" transform="translate(1182.827 -805.491)" fill="#fff" stroke="#fff" stroke-width="0.25"/>
</svg>
