<svg id="My_Events" data-name="My Events" xmlns="http://www.w3.org/2000/svg" width="21.586" height="20.5" viewBox="0 0 21.586 20.5">
  <path id="Path_307" data-name="Path 307" d="M332.051,328.861c0-.514,0-.986,0-1.457a1.105,1.105,0,0,1,.037-.324.5.5,0,0,1,.49-.366.511.511,0,0,1,.52.361,1.055,1.055,0,0,1,.037.3q0,2.036,0,4.072c0,.034,0,.068,0,.1a.538.538,0,0,1-.541.551.527.527,0,0,1-.541-.548c-.013-.43,0-.86,0-1.29,0-.091,0-.183,0-.26-.033-.023-.047-.04-.06-.04-.969,0-1.939-.025-2.908,0a1.465,1.465,0,0,0-1.345,1.505q0,3.655,0,7.309,0,2.9,0,5.792a1.5,1.5,0,0,0,1.532,1.565q8.183.006,16.366,0a1.5,1.5,0,0,0,1.53-1.542q0-4.489,0-8.978v-.278H329.6c-.067,0-.135,0-.2,0a.538.538,0,1,1,.006-1.073c1.256,0,2.513,0,3.769,0h13.951c.02-.026.038-.039.038-.051,0-.961.024-1.922,0-2.883a1.463,1.463,0,0,0-1.4-1.374c-.4-.014-.793,0-1.189-.005s-.632-.21-.638-.534.244-.56.645-.55a10.051,10.051,0,0,1,1.685.088,2.486,2.486,0,0,1,1.979,2.455q.01,6.626,0,13.251a2.557,2.557,0,0,1-2.566,2.552q-8.221,0-16.442,0a2.558,2.558,0,0,1-2.565-2.528q-.015-6.639,0-13.278a2.563,2.563,0,0,1,2.578-2.544c.835-.007,1.67,0,2.5,0Z" transform="translate(-326.658 -326.713)" fill="#fff"/>
  <path id="Path_308" data-name="Path 308" d="M483.578,329.93h-1.2c-1.887,0-3.775.013-5.662.011a.943.943,0,0,1-.456-.106.481.481,0,0,1-.215-.572.528.528,0,0,1,.522-.4c.345-.013.691-.007,1.036-.008l5.688-.008h.285c0-.409,0-.8,0-1.194a3.11,3.11,0,0,1,.026-.528.5.5,0,0,1,.527-.415.514.514,0,0,1,.508.409,1.085,1.085,0,0,1,.025.25q0,2.035,0,4.069c0,.042,0,.084,0,.126a.539.539,0,0,1-.536.529.528.528,0,0,1-.545-.543c-.013-.429,0-.859,0-1.289C483.578,330.163,483.578,330.063,483.578,329.93Z" transform="translate(-468.471 -326.711)" fill="#fff"/>
  <path id="Path_309" data-name="Path 309" d="M468.434,548.248l1.446-1.766c.72-.88,1.437-1.762,2.164-2.637a.922.922,0,0,1,.37-.283.484.484,0,0,1,.577.2.52.52,0,0,1-.031.655c-.3.377-.605.745-.909,1.117l-3.122,3.812a.564.564,0,0,1-1,0q-1.113-1.359-2.224-2.718a.542.542,0,0,1,.272-.925.56.56,0,0,1,.568.249q.861,1.058,1.729,2.111C468.321,548.119,468.371,548.175,468.434,548.248Z" transform="translate(-458.519 -532.565)" fill="#fff"/>
</svg>
