<svg xmlns="http://www.w3.org/2000/svg" width="19.75" height="17.956" viewBox="0 0 19.75 17.956">
  <g id="My_Jobs" data-name="My Jobs" transform="translate(-732.112 -97.229)">
    <path id="Path_923" data-name="Path 923" d="M737.437,99.938c0-.386,0-.748,0-1.109a1.5,1.5,0,0,1,.9-1.45,1.454,1.454,0,0,1,.593-.141q3.055-.015,6.111,0a1.5,1.5,0,0,1,1.478,1.361c.034.347.017.7.022,1.048,0,.088,0,.176,0,.293h.26c1.132,0,2.264.022,3.4-.007a1.589,1.589,0,0,1,1.668,1.673c-.016,3.985-.006,7.97-.007,11.955a1.523,1.523,0,0,1-1.073,1.554,1.87,1.87,0,0,1-.527.069q-8.271.006-16.543,0a1.517,1.517,0,0,1-1.6-1.606q0-6.008,0-12.017a1.519,1.519,0,0,1,1.621-1.623c1.145,0,2.29,0,3.436,0Zm1.847,8.036h5.4c0-.177-.007-.347,0-.516a.937.937,0,0,1,.953-.931c.164,0,.329,0,.493,0a.947.947,0,0,1,.955.953c0,.162,0,.325,0,.483a3.442,3.442,0,0,0,3.825-3.211c.036-1.1.015-2.195.01-3.292a.587.587,0,0,0-.658-.6H733.7a.591.591,0,0,0-.658.644c0,1.036-.027,2.072.006,3.107a3.453,3.453,0,0,0,3.829,3.359c0-.167,0-.317,0-.467a.947.947,0,0,1,.975-.974c.137,0,.274,0,.411,0a.95.95,0,0,1,1.019,1.013C739.286,107.682,739.284,107.824,739.284,107.974Zm5.4.955h-5.409c0,.2.012.387,0,.57a.934.934,0,0,1-.908.867c-.178.007-.357.006-.535,0a.95.95,0,0,1-.952-.957c0-.162,0-.324,0-.506a4.481,4.481,0,0,1-3.825-1.654c-.006.1-.013.147-.013.2q0,3.066,0,6.131c0,.469.234.688.723.688H750.2c.494,0,.721-.223.721-.711q0-3.034,0-6.07c0-.064-.007-.129-.012-.241a4.48,4.48,0,0,1-3.827,1.662c0,.2.006.373,0,.543a.946.946,0,0,1-.909.914c-.178.007-.357.006-.535,0a.941.941,0,0,1-.955-.93C744.678,109.275,744.685,109.111,744.685,108.929Zm-6.323-9h7.248c0-.341,0-.669,0-1,0-.561-.222-.781-.785-.781q-2.836,0-5.674,0a2,2,0,0,0-.205,0,.616.616,0,0,0-.581.566C738.35,99.112,738.362,99.51,738.362,99.924Zm-.825,8.512c0,.308,0,.616,0,.924,0,.241.109.346.352.35.144,0,.288,0,.431,0a.27.27,0,0,0,.3-.276q.012-.985,0-1.97a.268.268,0,0,0-.295-.276c-.13,0-.26,0-.39,0-.3,0-.394.093-.4.389S737.537,108.149,737.537,108.436Zm8.892-.007c0-.3,0-.6,0-.9,0-.232-.107-.334-.34-.34-.15,0-.3,0-.451,0a.269.269,0,0,0-.29.282q-.009.975,0,1.95a.276.276,0,0,0,.3.29c.144,0,.288,0,.431,0,.24,0,.344-.112.346-.357C746.431,109.045,746.429,108.737,746.429,108.429Z" fill="#545454"/>
  </g>
</svg>
