<svg xmlns="http://www.w3.org/2000/svg" width="24.434" height="19.133" viewBox="0 0 24.434 19.133">
  <g id="My_Meetings" data-name="My Meetings" transform="translate(-868.467 -204.381)">
    <path id="Path_919" data-name="Path 919" d="M868.592,215.279a3.4,3.4,0,0,1,.239-.479,1.036,1.036,0,0,1,.867-.454c.779-.011,1.559-.008,2.338,0a.383.383,0,0,1,.244.139c.555.655,1.1,1.319,1.657,1.97a.475.475,0,0,0,.312.145c.464.016.929.006,1.393.007a1.213,1.213,0,0,1,1.264.865c0-.078.009-.155.01-.232a16.255,16.255,0,0,1,.047-1.7,1.731,1.731,0,0,1,1.271-1.469c.506-.17,1.026-.3,1.536-.457a.414.414,0,0,1,.468.122c.138.149.271.3.447.5.178-.2.312-.348.45-.5a.414.414,0,0,1,.468-.126c.51.159,1.027.294,1.537.455a1.875,1.875,0,0,1,1.318,1.8c.006.534,0,1.068.02,1.611a1.149,1.149,0,0,1,.994-.855,8.283,8.283,0,0,1,1.345-.008.858.858,0,0,0,.83-.384c.458-.6.963-1.164,1.441-1.749a.361.361,0,0,1,.32-.146c.724.006,1.448,0,2.173,0a1.133,1.133,0,0,1,1.193,1.183q.005,2.6,0,5.2a1.883,1.883,0,0,1-1.936,1.919c-.827,0-1.654.006-2.48,0a.262.262,0,0,0-.3.214c-.422,1.292-.854,2.58-1.282,3.869-.14.42-.191.457-.644.457h-1.913c-.4,0-.542-.169-.458-.562.392-1.828.781-3.657,1.182-5.484a1.861,1.861,0,0,1,1.867-1.5c.723,0,1.446,0,2.186,0v-1.341c-.3.119-.607.218-.893.353a2.571,2.571,0,0,1-1.142.22c-4.251-.008-8.5,0-12.754-.011a2.494,2.494,0,0,1-.751-.146c-.356-.117-.7-.273-1.073-.422v1.346h.244c.637,0,1.275,0,1.913,0a1.861,1.861,0,0,1,1.9,1.516c.406,1.841.8,3.686,1.2,5.53a.373.373,0,0,1-.4.5c-.717.005-1.433,0-2.149,0a.427.427,0,0,1-.444-.342c-.436-1.32-.882-2.637-1.314-3.959a.285.285,0,0,0-.328-.241c-.8.013-1.606.006-2.409.005a1.878,1.878,0,0,1-1.955-1.563.351.351,0,0,0-.042-.082Zm8.219,11.158a1,1,0,0,0-.008-.123q-.539-2.513-1.082-5.025a1.131,1.131,0,0,0-1.159-.915c-.827,0-1.654,0-2.48,0-.324,0-.458-.137-.458-.462q0-1.039,0-2.079c0-.389.228-.546.587-.4.527.208,1.05.424,1.577.629a.934.934,0,0,0,.319.062c.528.006,1.055,0,1.583,0,.293,0,.466-.143.468-.38s-.17-.39-.459-.39c-.567,0-1.134-.006-1.7,0a.549.549,0,0,1-.468-.219c-.52-.633-1.051-1.257-1.569-1.891a.408.408,0,0,0-.36-.164c-.591.008-1.181,0-1.771,0-.367,0-.491.127-.491.5q0,2.551,0,5.1a1.139,1.139,0,0,0,1.206,1.216c.913,0,1.827,0,2.74,0,.448,0,.494.033.637.465.429,1.289.857,2.58,1.293,3.867.026.079.116.192.18.194C875.859,226.444,876.323,226.436,876.811,226.436Zm7.734,0c.457,0,.881-.012,1.3.005.2.008.269-.065.327-.243.427-1.307.865-2.611,1.3-3.914.108-.324.192-.384.53-.384.96,0,1.921,0,2.882,0a1.125,1.125,0,0,0,1.142-1.136q.007-2.611,0-5.221c0-.323-.137-.459-.459-.461-.614,0-1.228-.007-1.842.005a.442.442,0,0,0-.293.138q-.8.932-1.575,1.885a.607.607,0,0,1-.528.243c-.575-.01-1.15-.006-1.725,0a.374.374,0,0,0-.392.333c-.021.208.078.4.27.411.667.024,1.334,0,2,0a.407.407,0,0,0,.131-.051c.5-.2,1.007-.4,1.511-.6.4-.159.616-.009.617.43q0,1,0,2.008c0,.369-.128.5-.5.5h-2.41a1.137,1.137,0,0,0-1.2.976q-.253,1.163-.5,2.327C884.941,224.583,884.748,225.489,884.545,226.437Zm-.827-8.325c0-.749,0-1.479,0-2.209a1.136,1.136,0,0,0-.844-1.143c-.3-.093-.61-.158-.9-.273a.527.527,0,0,0-.726.181,1.657,1.657,0,0,1-.248.252.383.383,0,0,1-.63-.008c-.141-.138-.269-.29-.422-.412a.371.371,0,0,0-.278-.075c-.4.1-.8.222-1.2.345a1.128,1.128,0,0,0-.811,1.1c0,.692,0,1.385,0,2.078,0,.052.008.106.013.164h.758c0-.357-.014-.7.007-1.046a.579.579,0,0,1,.157-.366.356.356,0,0,1,.338-.039.579.579,0,0,1,.227.368c.031.356.01.717.01,1.082h3.04c0-.358-.014-.7.007-1.046a.576.576,0,0,1,.159-.366.353.353,0,0,1,.337-.038.578.578,0,0,1,.226.369c.031.356.01.717.01,1.085Z" transform="translate(0 -3.789)" fill="#fff" stroke="#fff" stroke-width="0.25"/>
    <path id="Path_920" data-name="Path 920" d="M868.592,207.776l.1-.355a2.264,2.264,0,1,1-.055,1.03,1.256,1.256,0,0,0-.049-.155Zm.748.271a1.52,1.52,0,1,0,1.544-1.507A1.517,1.517,0,0,0,869.34,208.048Z" transform="translate(0 -0.539)" fill="#fff" stroke="#fff" stroke-width="0.25"/>
    <path id="Path_921" data-name="Path 921" d="M889.977,206.761a2.259,2.259,0,1,1-2.257-2.255A2.274,2.274,0,0,1,889.977,206.761Zm-3.778-.009a1.519,1.519,0,1,0,1.52-1.506A1.515,1.515,0,0,0,886.2,206.752Z" transform="translate(-7.032)" fill="#fff" stroke="#fff" stroke-width="0.25"/>
    <path id="Path_922" data-name="Path 922" d="M904.582,205.8a2.259,2.259,0,1,1-2.269,2.243A2.271,2.271,0,0,1,904.582,205.8Zm1.51,2.269a1.519,1.519,0,1,0-1.518,1.51A1.515,1.515,0,0,0,906.092,208.072Z" transform="translate(-14.058 -0.541)" fill="#fff" stroke="#fff" stroke-width="0.25"/>
  </g>
</svg>
