<svg xmlns="http://www.w3.org/2000/svg" width="21.221" height="18.792" viewBox="0 0 21.221 18.792">
  <g id="My_Videos" data-name="My Videos" transform="translate(0.122 0.125)">
    <path id="Path_299" data-name="Path 299" d="M-399.745,578.321c2.187,0,4.374-.013,6.561,0a3.929,3.929,0,0,1,3.692,2.687,4.539,4.539,0,0,1,.226,1.368c.018,3.462.011,6.924.009,10.386a4,4,0,0,1-3.387,4.038,3.832,3.832,0,0,1-.655.05q-6.448,0-12.9,0a4,4,0,0,1-4.028-4q-.015-5.276,0-10.551a3.989,3.989,0,0,1,3.957-3.984c1.09-.014,2.18,0,3.27,0h3.25Zm0,.71h0c-2.112,0-4.223,0-6.335,0a4.28,4.28,0,0,0-.876.084,3.312,3.312,0,0,0-2.563,3.314c.02,3.435.006,6.87.008,10.3a3.569,3.569,0,0,0,.04.635,3.253,3.253,0,0,0,3.3,2.772q6.438.012,12.876,0a3.7,3.7,0,0,0,.754-.076,3.314,3.314,0,0,0,2.582-3.32c-.018-3.435,0-6.87-.009-10.3a3.763,3.763,0,0,0-.086-.856,3.254,3.254,0,0,0-3.273-2.553C-395.468,579.026-397.607,579.031-399.746,579.031Z" transform="translate(410.23 -578.316)" fill="#545454" stroke="#545454" stroke-miterlimit="10" stroke-width="0.25"/>
    <path id="Path_300" data-name="Path 300" d="M-351.137,622.591q0-1.645,0-3.289c0-.323.018-.646.345-.823a.819.819,0,0,1,.864.137q2.725,1.645,5.453,3.285l.088.053a.69.69,0,0,1-.006,1.284c-.887.543-1.781,1.075-2.673,1.612-.973.586-1.945,1.176-2.923,1.753a1.27,1.27,0,0,1-.514.178.579.579,0,0,1-.6-.492,1.868,1.868,0,0,1-.036-.388Q-351.14,624.245-351.137,622.591Zm6.448,0-5.713-3.44v6.881Z" transform="translate(358.635 -613.315)" fill="#545454" stroke="#545454" stroke-miterlimit="10" stroke-width="0.25"/>
  </g>
</svg>
