<svg xmlns="http://www.w3.org/2000/svg" width="34.204" height="30.363" viewBox="0 0 34.204 30.363">
  <g id="Network" transform="translate(-2332.496 -421.598)">
    <path id="Union_6" data-name="Union 6" d="M-6988.41,5357.461v-1.517h6.24v-4.406a1.79,1.79,0,0,0-1.347-1.759l-6.861-1.7a1.3,1.3,0,0,1-.975-1.272v-2.635a2.127,2.127,0,0,1,.577-1.468c.743-.78,3.185-3.564,3.31-6.6a6.77,6.77,0,0,0-1.611-4.994,4.613,4.613,0,0,0-3.649-1.495,5.77,5.77,0,0,0-3.5,1.635l-.959-1.151a6.958,6.958,0,0,1,4.473-2,6.312,6.312,0,0,1,4.692,1.956,8.288,8.288,0,0,1,2.028,6.113c-.144,3.477-2.658,6.471-3.733,7.6a.577.577,0,0,0-.153.4v2.471l6.711,1.664a3.3,3.3,0,0,1,2.472,3.234v5.923Zm-25.492-.322v-4.654a3.587,3.587,0,0,1,2.491-3.433l5.046-1.535.074-.808c-1.929.024-5.385-.359-6.381-3.32l-.294-.88.9-.12c.241-.037,2.407-.442,2.407-3.343,0-5.793,1.841-9.113,5.476-9.866l.028,0a4.92,4.92,0,0,1,1.745,0c3.637.753,5.479,4.073,5.479,9.866,0,2.9,2.164,3.306,2.41,3.345l.882.13-.287.868c-.991,2.961-4.462,3.35-6.377,3.32l.074.808,5.046,1.535a3.587,3.587,0,0,1,2.491,3.433v4.654Zm8.976-9.182a1.066,1.066,0,0,1-.736.928l-5.332,1.621a2.066,2.066,0,0,0-1.437,1.979v3.139h18.263v-3.139a2.068,2.068,0,0,0-1.436-1.979l-5.327-1.62a1.062,1.062,0,0,1-.741-.931l-.259-2.873.873.074c1.014.088,4.118.187,5.369-1.543a4.638,4.638,0,0,1-2.718-4.566c0-5.04-1.4-7.78-4.3-8.378a3.476,3.476,0,0,0-1.209,0c-2.882.6-4.281,3.344-4.281,8.375a4.639,4.639,0,0,1-2.719,4.566c1.257,1.73,4.358,1.632,5.37,1.543l.874-.074Z" transform="translate(9346.897 -4906)" fill="#707070" stroke="rgba(0,0,0,0)" stroke-miterlimit="10" stroke-width="1"/>
  </g>
</svg>
