<svg xmlns="http://www.w3.org/2000/svg" width="20.336" height="20.502" viewBox="0 0 20.336 20.502">
  <g id="Orders" transform="translate(-654.659 -84.381)">
    <path id="Path_924" data-name="Path 924" d="M654.8,94.653q0-2.561,0-5.121c0-.132-.016-.265-.019-.4a.459.459,0,0,1,.292-.474q4.6-2.047,9.207-4.1a.755.755,0,0,1,.653.035q4.367,1.848,8.737,3.69c.3.126.593.251.891.371a.454.454,0,0,1,.306.463c-.005,1.081-.019,2.162-.02,3.243,0,2.522-.011,5.045.011,7.566a.783.783,0,0,1-.567.843c-3.1,1.3-6.185,2.629-9.279,3.937a.639.639,0,0,1-.454,0c-3.125-1.334-6.243-2.681-9.367-4.017a.57.57,0,0,1-.393-.607C654.808,98.275,654.8,96.463,654.8,94.653Zm1.5-5.609a.861.861,0,0,0,.112.074q4.108,1.732,8.218,3.454a.471.471,0,0,0,.32-.013c.413-.162.82-.344,1.229-.516.35-.147.567-.095.68.157s0,.452-.346.6-.672.309-1.019.429a.4.4,0,0,0-.306.455q.012,4.85.005,9.7v.325c.112-.037.175-.054.235-.079q4.192-1.784,8.387-3.563c.191-.082.214-.2.214-.373q0-4.834,0-9.669c0-.1-.013-.2-.024-.334-.874.363-1.7.7-2.527,1.057-.068.029-.117.182-.117.278-.009.91-.012,1.821,0,2.73a.324.324,0,0,1-.238.355c-.911.373-1.815.761-2.722,1.142-.065.027-.135.043-.235.074v-.341c0-.986,0-1.972,0-2.958a.316.316,0,0,0-.211-.349c-2.948-1.237-5.893-2.484-8.844-3.719a.61.61,0,0,0-.424.013c-.714.3-1.419.625-2.128.942C656.491,88.946,656.42,88.987,656.309,89.044Zm8.048,14.674c.008-.116.016-.182.016-.247q0-4.934.007-9.869a.331.331,0,0,0-.254-.346q-4.122-1.73-8.242-3.464c-.074-.031-.153-.047-.266-.082v.324c0,3.2,0,6.408-.005,9.612a.42.42,0,0,0,.306.458c2.333.993,4.661,2,6.991,3C663.378,103.3,663.846,103.5,664.357,103.718Zm8.972-14.645c-.11-.062-.17-.1-.235-.132q-4.17-1.762-8.343-3.517a.517.517,0,0,0-.367.009c-.627.265-1.248.547-1.87.825a2.465,2.465,0,0,0-.217.128c.127.06.217.107.309.147q3.987,1.686,7.973,3.374a.829.829,0,0,0,.726.011C671.958,89.626,672.625,89.365,673.33,89.073ZM659.973,87.4c.163.076.246.118.333.154q4.172,1.762,8.346,3.517a.462.462,0,0,1,.34.52c-.023.72-.008,1.441-.007,2.161,0,.1.011.2.019.352.456-.191.867-.377,1.288-.535a.334.334,0,0,0,.242-.38q-.016-1.068,0-2.134a.34.34,0,0,0-.245-.377q-4.437-1.862-8.868-3.739a.445.445,0,0,0-.3-.045C660.761,87.033,660.405,87.2,659.973,87.4Z" transform="translate(0)" fill="#fff" stroke="#fff" stroke-width="0.25"/>
    <path id="Path_925" data-name="Path 925" d="M659.693,95.621c0,.311,0,.622,0,.932,0,.227-.112.356-.3.359a.309.309,0,0,1-.317-.346q-.009-.954,0-1.908a.3.3,0,0,1,.326-.335c.183.007.288.126.29.344C659.7,94.985,659.693,95.3,659.693,95.621Z" transform="translate(1.511 4.002)" fill="#fff" stroke="#fff" stroke-width="0.25"/>
    <path id="Path_926" data-name="Path 926" d="M660.38,96.147c0-.311,0-.622,0-.933,0-.223.117-.361.3-.367a.321.321,0,0,1,.318.351q.009.954,0,1.909a.317.317,0,0,1-.323.344.313.313,0,0,1-.291-.349C660.377,96.784,660.38,96.465,660.38,96.147Z" transform="translate(1.971 5.113)" fill="#fff" stroke="#fff" stroke-width="0.25"/>
  </g>
</svg>
