<svg xmlns="http://www.w3.org/2000/svg" width="21.783" height="24.177" viewBox="0 0 21.783 24.177">
  <g id="Group_54" data-name="Group 54" transform="translate(0.127 0.127)">
    <path id="Path_295" data-name="Path 295" d="M87.891,167.348c-1.649-.108-3.3-.185-4.945-.334a31.621,31.621,0,0,1-4.574-.788,1.427,1.427,0,0,1-1.087-1.088,1.612,1.612,0,0,1,.4-1.649,9.851,9.851,0,0,1,3.4-2.214,14.766,14.766,0,0,1,2.887-.806c.384-.071.439-.139.435-.527,0-.235-.02-.471,0-.7a2.684,2.684,0,0,0-.349-1.462,9.533,9.533,0,0,1-.855-1.975c-.158-.617-.379-1.219-.558-1.831a2.336,2.336,0,0,1-.085-1.478,3.135,3.135,0,0,0-.016-1.778,6.56,6.56,0,0,1-.086-2.191,3.608,3.608,0,0,1,1.524-2.388,3.388,3.388,0,0,1,.7-.424.576.576,0,0,0,.38-.594,10.62,10.62,0,0,1,.1-1.167c.089-.545.5-.677.919-.317a4.892,4.892,0,0,0,1.788.91c.881.272,1.778.49,2.661.758a3.845,3.845,0,0,1,2.912,3.029,6.038,6.038,0,0,1-.039,2.286c-.07.392-.142.784-.207,1.177a.347.347,0,0,0,.015.2,2.72,2.72,0,0,1,.094,1.9,1.693,1.693,0,0,1-.072.271,20.619,20.619,0,0,1-1.4,3.737,2.134,2.134,0,0,0-.3,1.306,5.3,5.3,0,0,1-.014.68c-.023.411.041.485.434.581.857.211,1.726.388,2.563.663a9.149,9.149,0,0,1,3.7,2.291,1.717,1.717,0,0,1,.36,1.909,1.417,1.417,0,0,1-1.081.883c-1.175.225-2.346.478-3.528.653a39.374,39.374,0,0,1-6.067.407ZM85.91,144.575c-.019.219-.05.435-.055.651a1.209,1.209,0,0,1-.759,1.189,3.042,3.042,0,0,0-1.843,3.51c.1.712.23,1.418.343,2.128a.249.249,0,0,1-.03.188,1.055,1.055,0,0,0-.236.985,5.788,5.788,0,0,0,.52,1.72,2.542,2.542,0,0,1,.1.334c.116.395.2.8.356,1.181.162.4.391.783.582,1.177a2.887,2.887,0,0,1,.322,1.262c0,.36.014.72.017,1.08a1.155,1.155,0,0,1-1.052,1.271,13.234,13.234,0,0,0-3.483,1.083,8.77,8.77,0,0,0-2.409,1.7.843.843,0,0,0,.289,1.412,39.8,39.8,0,0,0,8.633,1.034,37.241,37.241,0,0,0,5.979-.327c1.384-.2,2.757-.477,4.134-.721a.662.662,0,0,0,.549-.541.884.884,0,0,0-.245-.9,8.873,8.873,0,0,0-3.9-2.262c-.712-.208-1.445-.34-2.165-.519a1.089,1.089,0,0,1-.851-1.1c0-.266.019-.534,0-.8a3.592,3.592,0,0,1,.459-1.912,7.467,7.467,0,0,0,.681-1.538c.149-.6.36-1.173.553-1.756a3.544,3.544,0,0,0,.17-.68c.05-.414.154-.846-.216-1.191a.224.224,0,0,1-.03-.171c.045-.285.112-.568.149-.854a15.959,15.959,0,0,0,.235-2.138,2.9,2.9,0,0,0-1.909-2.808,8.677,8.677,0,0,0-1.095-.342,14.12,14.12,0,0,1-3.716-1.341C85.974,144.57,85.947,144.577,85.91,144.575Z" transform="translate(-77.21 -143.431)" fill="#fff" stroke="#fff" stroke-width="0.25"/>
  </g>
</svg>
