<svg xmlns="http://www.w3.org/2000/svg" width="34" height="30" viewBox="0 0 34 30">
  <g id="R-M-Cart" transform="translate(280 -806)">
    <rect id="Rectangle_16978" data-name="Rectangle 16978" width="34" height="30" transform="translate(-280 806)" fill="#fff" opacity="0"/>
    <g id="Group_1286" data-name="Group 1286" transform="translate(-278 809)">
      <path id="Path_208" data-name="Path 208" d="M-821-540.473h.116l5.523-.006q4.321,0,8.642-.007,1.548,0,3.1.015a1.627,1.627,0,0,1,1.314.686,1.559,1.559,0,0,1,.334.954c.006.476.015.952.014,1.427,0,1.422-.011,2.844-.013,4.267a1.7,1.7,0,0,1-1.317,1.639,3.8,3.8,0,0,1-.44.055c-.406.038-.813.072-1.219.107l-.979.084-.986.087-.979.084-.986.087-.792.068-.994.088-.785.068-1,.088-.792.068-.994.087-.777.068-1.017.089-.792.068-.994.087-.792.068-.427.036a.213.213,0,0,0-.125.053q-.839.706-1.679,1.409c-.019.016-.036.033-.069.064h18.369a.674.674,0,0,1,.3.067.438.438,0,0,1,.241.526.531.531,0,0,1-.515.4h-18.549a.882.882,0,0,1-.359-.06.952.952,0,0,1-.57-.7.833.833,0,0,1,.3-.872q.886-.74,1.771-1.482a.125.125,0,0,0,.051-.143q-.406-1.838-.807-3.676c-.236-1.078-.466-2.158-.708-3.235-.3-1.333-.608-2.664-.914-4a2.815,2.815,0,0,0-.109-.406,1.924,1.924,0,0,0-1.55-1.259,1.851,1.851,0,0,0-.311-.019h-4.111a.512.512,0,0,1-.483-.715.431.431,0,0,1,.414-.276c.244,0,.489,0,.733,0,1.157,0,2.314,0,3.471,0a2.9,2.9,0,0,1,2.286,1.091,2.846,2.846,0,0,1,.6,1.276c.109.516.228,1.03.343,1.544C-821.011-540.508-821.006-540.494-821-540.473Zm2.081,9.357c.02,0,.033,0,.045,0l.761-.065,1.01-.087.824-.068,1.2-.1,1.026-.084,1.4-.118c.4-.034.808-.065,1.212-.1l1.546-.134,1.437-.125,1.576-.141q.842-.077,1.685-.156c.538-.051,1.075-.109,1.614-.154a.686.686,0,0,0,.617-.677c0-.174,0-.348.005-.523.024-1.724.046-3.447-.006-5.171a.68.68,0,0,0-.541-.648,1.019,1.019,0,0,0-.194-.012h-16.964c-.018,0-.037,0-.055,0l-.063.008Z" transform="translate(828.901 544.437)" fill="#0db154"/>
      <path id="Path_209" data-name="Path 209" d="M-727.32-451.505a2.52,2.52,0,0,1,1.461.454,2.9,2.9,0,0,1,1.256,1.917,2.457,2.457,0,0,1-1.12,2.554,2.934,2.934,0,0,1-1.319.459,2.674,2.674,0,0,1-1.4-.215,2.292,2.292,0,0,1-1.337-1.616,2.957,2.957,0,0,1,.538-2.6,2.362,2.362,0,0,1,1.63-.925C-727.5-451.492-727.389-451.5-727.32-451.505Zm1.81,2.727c0-.025,0-.061-.005-.1a.667.667,0,0,0-.005-.07,1.747,1.747,0,0,0-1.1-1.433,1.5,1.5,0,0,0-1.668.281,1.935,1.935,0,0,0-.586.922,1.605,1.605,0,0,0-.045.824,1.456,1.456,0,0,0,.969,1.128,1.669,1.669,0,0,0,.777.072,2.049,2.049,0,0,0,1.184-.542A1.442,1.442,0,0,0-725.51-448.778Z" transform="translate(749.239 469.677)" fill="#0db154"/>
      <path id="Path_210" data-name="Path 210" d="M-779.659-448.622a2.45,2.45,0,0,1-1.189,2.067,2.89,2.89,0,0,1-1.3.445,2.676,2.676,0,0,1-1.464-.247,2.321,2.321,0,0,1-1.231-1.438,3.047,3.047,0,0,1,.549-2.813,2.416,2.416,0,0,1,1.569-.859,2.466,2.466,0,0,1,1.918.539,2.929,2.929,0,0,1,1.093,1.747A3.049,3.049,0,0,1-779.659-448.622Zm-2.844,1.5c.072-.006.145-.009.217-.017a2.035,2.035,0,0,0,1.117-.474,1.407,1.407,0,0,0,.545-1.285,1.727,1.727,0,0,0-1.066-1.455,1.515,1.515,0,0,0-1.042-.1,1.649,1.649,0,0,0-.857.568,1.8,1.8,0,0,0-.433,1.522,1.434,1.434,0,0,0,.968,1.145A1.653,1.653,0,0,0-782.5-447.124Z" transform="translate(793.566 469.666)" fill="#0db154"/>
    </g>
  </g>
</svg>
