<svg xmlns="http://www.w3.org/2000/svg" width="34" height="30" viewBox="0 0 34 30">
  <g id="R-M-Account-Settings" transform="translate(197 -807)">
    <rect id="Rectangle_16980" data-name="Rectangle 16980" width="34" height="30" transform="translate(-197 807)" fill="#fff" opacity="0"/>
    <g id="Group_1287" data-name="Group 1287" transform="translate(418.96 776.754)">
      <path id="Path_354" data-name="Path 354" d="M-610.96,46.512V43.98a.246.246,0,0,0,.037-.057,1.483,1.483,0,0,1,1.564-1.173c.406,0,.812,0,1.218,0,.526,0,.526,0,.7-.508.021-.059.042-.118.067-.175.171-.39.343-.78.521-1.186-.4-.4-.808-.8-1.211-1.2a1.508,1.508,0,0,1,.006-2.311q.6-.606,1.21-1.209a1.538,1.538,0,0,1,2.335,0c.4.4.8.806,1.2,1.2.293-.138.564-.277.845-.393s.568-.217.858-.308c.135-.043.153-.122.152-.243,0-.57-.009-1.14,0-1.71a1.479,1.479,0,0,1,1.055-1.4c.058-.019.114-.043.171-.064h2.531c.012.01.022.025.035.029a1.5,1.5,0,0,1,1.2,1.643c0,.508,0,1.015,0,1.523a.2.2,0,0,0,.153.219c.568.215,1.132.438,1.733.673.377-.377.789-.792,1.2-1.2a1.53,1.53,0,0,1,2.269,0c.405.4.807.806,1.21,1.209a1.52,1.52,0,0,1,.008,2.378l-1.156,1.155c.238.606.458,1.181.694,1.748a.291.291,0,0,0,.223.127c.562.011,1.125,0,1.687.008a1.485,1.485,0,0,1,1.427,1.08c.016.05.038.1.057.148v2.531c-.01.012-.025.022-.029.035a1.5,1.5,0,0,1-1.619,1.2c-.515,0-1.031,0-1.546.006a.268.268,0,0,0-.2.125c-.234.568-.454,1.142-.691,1.749.378.378.793.79,1.205,1.205a1.5,1.5,0,0,1,.009,2.262q-.617.625-1.241,1.243a1.54,1.54,0,0,1-2.336,0l-1.171-1.171c-.6.234-1.162.46-1.731.671-.132.049-.152.123-.152.244,0,.578.01,1.156,0,1.733a1.462,1.462,0,0,1-1.011,1.356c-.072.025-.143.055-.214.082h-2.531a.237.237,0,0,0-.057-.038,1.487,1.487,0,0,1-1.173-1.564c0-.523,0-1.046,0-1.57,0-.121-.02-.195-.152-.244-.569-.212-1.132-.438-1.734-.673-.382.383-.8.805-1.219,1.221a1.528,1.528,0,0,1-2.236,0q-.633-.626-1.26-1.258a1.508,1.508,0,0,1,.008-2.327c.4-.4.807-.8,1.2-1.2-.14-.3-.28-.567-.4-.847s-.216-.569-.307-.858c-.042-.134-.121-.154-.242-.153-.578,0-1.156.01-1.734,0a1.465,1.465,0,0,1-1.357-1.01C-610.9,46.654-610.933,46.583-610.96,46.512Zm10.5,8.092c0,.351,0,.7,0,1.054a.521.521,0,0,0,.59.591q.9.007,1.8,0c.422,0,.6-.193.605-.624,0-.68,0-1.359,0-2.039a.516.516,0,0,1,.448-.591,8.086,8.086,0,0,0,2.133-.88.524.524,0,0,1,.77.1c.476.474.949.951,1.426,1.424a.536.536,0,0,0,.886-.006q.623-.62,1.242-1.243a.521.521,0,0,0,0-.867c-.484-.488-.972-.972-1.457-1.459a.5.5,0,0,1-.094-.714,8.244,8.244,0,0,0,.9-2.175.505.505,0,0,1,.577-.433c.687,0,1.375,0,2.062,0,.415,0,.607-.187.609-.6q.006-.9,0-1.8c0-.412-.193-.6-.605-.6-.687,0-1.375,0-2.062,0a.517.517,0,0,1-.587-.453,8.092,8.092,0,0,0-.881-2.133.516.516,0,0,1,.094-.752c.479-.482.962-.96,1.441-1.443a.522.522,0,0,0,.006-.867q-.627-.632-1.259-1.259a.528.528,0,0,0-.869,0c-.476.474-.95.95-1.426,1.424a.53.53,0,0,1-.789.1,7.971,7.971,0,0,0-2.091-.863.529.529,0,0,1-.474-.618c0-.68,0-1.359,0-2.039a.526.526,0,0,0-.6-.6q-.9-.005-1.8,0c-.41,0-.593.194-.593.611,0,.68,0,1.359,0,2.039a.525.525,0,0,1-.459.607,8.07,8.07,0,0,0-2.132.882.518.518,0,0,1-.752-.1q-.706-.7-1.409-1.408c-.341-.34-.584-.343-.919-.01q-.614.612-1.226,1.226a.526.526,0,0,0,0,.883c.474.476.951.949,1.424,1.425a.527.527,0,0,1,.1.771,7.969,7.969,0,0,0-.872,2.111.524.524,0,0,1-.6.467c-.68,0-1.359,0-2.039,0-.431,0-.618.182-.62.607q0,.89,0,1.781c0,.426.19.61.618.611.68,0,1.359,0,2.039,0a.522.522,0,0,1,.6.464,8,8,0,0,0,.872,2.112.527.527,0,0,1-.1.771c-.479.482-.962.96-1.441,1.442a.517.517,0,0,0,0,.85q.627.632,1.259,1.259a.535.535,0,0,0,.886-.006c.487-.485.971-.974,1.459-1.457a.487.487,0,0,1,.675-.1,8.541,8.541,0,0,0,2.218.921.5.5,0,0,1,.417.565C-600.458,53.916-600.46,54.26-600.46,54.6Z" fill="#0db154"/>
      <path id="Path_355" data-name="Path 355" d="M-456.853,182.5a5.014,5.014,0,0,1,5.148,4.863,5.015,5.015,0,0,1-4.851,5.136,5.015,5.015,0,0,1-5.147-4.84A5.015,5.015,0,0,1-456.853,182.5Zm4.143,4.99a3.987,3.987,0,0,0-4-3.986,3.988,3.988,0,0,0-3.991,3.993,3.99,3.99,0,0,0,4.01,4A3.989,3.989,0,0,0-452.71,187.485Z" transform="translate(-142.255 -142.249)" fill="#0db154"/>
    </g>
  </g>
</svg>
