<svg xmlns="http://www.w3.org/2000/svg" width="34" height="30" viewBox="0 0 34 30">
  <g id="R-M-Orders" transform="translate(238 -806)">
    <path id="Path_1119" data-name="Path 1119" d="M-456.621,207.615c.124.074.173.073.31-.009,3.036-1.823,6.124-3.673,9.112-5.462l2.837-1.7-2.673-1.615,2.671-1.606-2.657-1.6,2.656-1.6-2.236-1.343c-3.211-1.928-6.531-3.921-9.794-5.885-.063-.038-.075-.045-.178.017-3.006,1.808-6.064,3.644-9.021,5.419l-2.985,1.792,2.657,1.6-2.659,1.6,2.673,1.607-2.674,1.61,2.491,1.492C-462.986,203.794-459.775,205.717-456.621,207.615Zm-9.928-13.3a.814.814,0,0,1-.092-.067l-.057-.045-.274-.211,1.261-.757,2.178-1.308,1.411-.847c1.739-1.043,3.537-2.122,5.3-3.187a.584.584,0,0,1,.667-.019c2.56,1.542,5.165,3.105,7.685,4.618l2.034,1.221c.035.021.066.043.1.069l.064.045.272.19-.268.195-.073.055a1.752,1.752,0,0,1-.159.111l-3.233,1.941q-3.206,1.924-6.411,3.85a.66.66,0,0,1-.34.11.578.578,0,0,1-.3-.091c-2.547-1.535-5.138-3.091-7.645-4.6Zm0,3.2c-.029-.017-.053-.035-.087-.059l-.066-.047-.3-.208.312-.187.342-.207c.337-.2.655-.4.986-.579a.615.615,0,0,1,.54.064c1.66.991,3.344,2,4.973,2.981l.911.547.618.37c.568.34,1.155.691,1.729,1.044a.164.164,0,0,0,.226,0c1.482-.894,2.989-1.8,4.448-2.678q1.876-1.128,3.75-2.257a.614.614,0,0,1,.723,0c.259.171.526.329.81.5l.363.216.314.189-.3.208-.089.062c-.057.04-.106.075-.16.108l-3.394,2.039-6.221,3.738a.692.692,0,0,1-.361.124.577.577,0,0,1-.3-.092c-2.61-1.575-5.268-3.171-7.839-4.714Zm-.07,3.167-.077-.052-.308-.205.489-.3.3-.183c.076-.046.153-.09.23-.135.171-.1.333-.193.484-.3a.606.606,0,0,1,.731,0q1.912,1.152,3.826,2.3c1.418.852,2.885,1.733,4.326,2.6a.208.208,0,0,0,.28,0c1.38-.834,2.786-1.679,4.145-2.5,1.313-.789,2.671-1.606,4-2.411a.634.634,0,0,1,.749.008c.258.17.524.328.806.5l.363.217.316.191-.306.207-.1.072c-.064.045-.12.083-.18.12l-3.519,2.107-6.057,3.626a.7.7,0,0,1-.365.127.577.577,0,0,1-.3-.092c-2.625-1.581-5.3-3.182-7.882-4.73l-1.866-1.118C-466.553,200.727-466.576,200.712-466.614,200.686Z" transform="translate(235.487 623.286)" fill="#615f5f"/>
    <rect id="Rectangle_16979" data-name="Rectangle 16979" width="34" height="30" transform="translate(-238 806)" fill="#fff" opacity="0"/>
  </g>
</svg>
