<?xml version="1.0" standalone="no"?>
<!DOCTYPE svg PUBLIC "-//W3C//DTD SVG 20010904//EN"
 "http://www.w3.org/TR/2001/REC-SVG-20010904/DTD/svg10.dtd">
<svg version="1.0" xmlns="http://www.w3.org/2000/svg"
 width="460.000000pt" height="377.000000pt" viewBox="0 0 460.000000 377.000000"
 preserveAspectRatio="xMidYMid meet">

<g transform="translate(0.000000,377.000000) scale(0.100000,-0.100000)"
fill="#979797" stroke="none">
<path d="M3099 3731 l-29 -29 0 -245 0 -244 -112 -13 c-573 -62 -1074 -331
-1446 -775 -220 -262 -390 -615 -456 -947 -43 -216 -60 -471 -35 -521 20 -39
51 -57 99 -57 28 0 53 7 66 18 11 9 95 105 186 212 169 200 256 289 388 396
195 159 461 303 697 379 234 74 235 75 257 119 16 32 17 44 7 76 -15 50 -53
80 -101 80 -84 0 -336 -88 -545 -190 -283 -138 -549 -341 -763 -583 -29 -32
-52 -54 -52 -48 0 30 45 207 75 298 161 482 515 892 970 1121 247 125 498 192
780 208 126 7 166 19 187 57 9 14 15 82 18 198 l5 176 495 -392 c272 -216 495
-399 495 -405 0 -7 -223 -189 -495 -405 l-495 -393 -5 176 c-5 191 -11 211
-60 237 -49 25 -88 19 -126 -19 l-34 -34 0 -319 c0 -353 0 -351 66 -379 49
-21 82 -9 175 64 443 348 1244 990 1259 1010 12 15 20 40 20 64 0 31 -7 46
-37 77 -33 33 -1244 997 -1313 1044 -14 10 -43 17 -68 17 -35 0 -49 -6 -73
-29z"/>
</g>
</svg>
