<?xml version="1.0" standalone="no"?>
<!DOCTYPE svg PUBLIC "-//W3C//DTD SVG 20010904//EN"
 "http://www.w3.org/TR/2001/REC-SVG-20010904/DTD/svg10.dtd">
<svg version="1.0" xmlns="http://www.w3.org/2000/svg"
 width="482.000000pt" height="505.000000pt" viewBox="0 0 482.000000 505.000000"
 preserveAspectRatio="xMidYMid meet">

<g transform="translate(0.000000,505.000000) scale(0.100000,-0.100000)"
fill="#fff" stroke="none">
<path d="M2606 5024 c-437 -97 -796 -489 -903 -987 -24 -112 -24 -341 1 -455
36 -167 107 -336 202 -479 71 -106 201 -244 292 -308 39 -28 71 -52 72 -55 0
-4 -34 -16 -75 -28 -174 -51 -390 -160 -578 -292 -121 -85 -362 -326 -447
-447 -231 -330 -352 -664 -380 -1047 -10 -151 -3 -194 37 -226 26 -20 26 -20
1973 -20 1947 0 1947 0 1973 20 40 32 47 73 36 223 -29 423 -179 805 -447
1138 -87 108 -273 284 -382 361 -183 129 -417 246 -588 294 -34 9 -62 20 -62
23 0 3 21 19 46 35 71 45 208 180 279 275 110 146 201 348 241 533 25 113 25
342 1 455 -83 388 -326 724 -645 891 -153 80 -247 104 -427 108 -109 3 -169
-1 -219 -12z m389 -234 c156 -49 290 -135 411 -262 165 -174 259 -379 284
-618 49 -479 -268 -958 -715 -1081 -357 -98 -773 133 -966 536 -86 179 -118
357 -99 545 25 238 119 444 281 615 143 150 308 246 490 285 72 15 235 5 314
-20z m-10 -2220 c339 -38 653 -166 920 -375 90 -71 247 -229 318 -322 186
-244 325 -584 352 -863 3 -36 8 -75 11 -87 l4 -23 -1790 0 -1790 0 4 23 c3 12
8 51 11 87 22 225 122 507 258 725 359 576 1037 909 1702 835z"/>
</g>
</svg>
