<svg xmlns="http://www.w3.org/2000/svg" width="20.333" height="18.113" viewBox="0 0 20.333 18.113">
  <g id="Wallet" transform="translate(-822.74 -69.413)">
    <path id="Path_917" data-name="Path 917" d="M841.309,73.338a4.683,4.683,0,0,1,.726.208,1.684,1.684,0,0,1,1.03,1.55c.016.469.005.939.005,1.409q0,4.361,0,8.722a2.187,2.187,0,0,1-1.537,2.189,2.5,2.5,0,0,1-.712.107q-7.915.008-15.83,0a2.2,2.2,0,0,1-2.248-2.3q0-5.429,0-10.856c0-.594,0-1.188,0-1.782a1.754,1.754,0,0,1,1.859-1.855q4.289,0,8.578,0a1.415,1.415,0,0,0,.463-.08c1.078-.384,2.153-.777,3.228-1.168.407-.148.6-.061.746.35.09.246.184.491.264.74a.207.207,0,0,0,.239.164c.449-.008.9,0,1.347,0a1.765,1.765,0,0,1,1.841,1.837C841.311,72.832,841.309,73.093,841.309,73.338Zm-17.68.683c0,.079-.007.12-.007.162q0,5.553,0,11.106a1.321,1.321,0,0,0,1.39,1.356q7.9,0,15.791,0a1.326,1.326,0,0,0,1.385-1.4q0-1.409,0-2.818v-.2c-.6,0-1.167.016-1.733-.007a2.209,2.209,0,0,1-.761-.159,1.756,1.756,0,0,1,.668-3.36c.532-.013,1.064,0,1.6,0h.23V75.3a.91.91,0,0,0-1.042-1.037q-8.144,0-16.289,0A2.238,2.238,0,0,1,823.629,74.021Zm5.156-.684,0,.033h9.181L836.892,70.4Zm2.082-1.683,0-.042H825.9c-.476,0-.952-.007-1.428,0a.878.878,0,0,0-.841.748.8.8,0,0,0,.584.947,19.011,19.011,0,0,0,1.974.038.248.248,0,0,0,.077-.029l1.866-.674Zm11.312,7.916c-.615,0-1.208-.009-1.8,0a.88.88,0,0,0-.127,1.744.406.406,0,0,0,.061.011h1.866Zm-1.764-6.187c0-.324.008-.625,0-.926a.815.815,0,0,0-.709-.819c-.468-.044-.942-.01-1.435-.01.205.565.4,1.114.608,1.662a.16.16,0,0,0,.115.089C839.459,73.386,839.926,73.384,840.416,73.384Z" fill="#545454"/>
    <path id="Path_918" data-name="Path 918" d="M854.609,90.082V88.547h1.567v1.535Z" transform="translate(-16.304 -8.935)" fill="#545454"/>
  </g>
</svg>
